<?xml version="1.0"?>
<svg xmlns="http://www.w3.org/2000/svg" height="32px" viewBox="0 0 60 60" width="32px"><g transform="matrix(-6.12323e-17, -1, -1, 6.12323e-17, 60, 60)"><g id="010---Right-Arrow" fill="none"><g id="Icons" transform="translate(1 1)"><path id="Shape" d="m57.92 9.14v-.01c-.0656584-.15041547-.1648552-.283818-.29-.39l-.02-.01-.44-.21h-.01l-8.97-4.23-.76-.29-46.36-4c-.37621446-.00841316-.72779066.18648235-.92.51-.19178038.29650029-.19952368.67592207-.02.98l10.64 18.28c.0604686.1078076.0979238.2269834.11.35.0316067.1572843.0177314.320319-.04.47l-4.78 27.06c-.1626906.3787042-.04733513.8195269.28 1.07l5.72 8.63.21.32c.2085489.2125407.4943548.3314532.7921175.3295686s.5820406-.1244052.7878825-.3395686l43.87-47.48c.2747114-.2722759.3541303-.68525454.2-1.04z" fill="#00bcd4" data-original="#00BCD4"/><path id="Shape" d="m57.72 10.18-43.87 47.48c-.2058419.2151634-.4901198.337684-.7878825.3395686s-.5835686-.1170279-.7921175-.3295686l-.21-.32c-.0851521-.2255645-.0851521-.4744355 0-.7l.91-2.42 8.87-23.64c.0818047-.2165113.0782299-.4560266-.01-.67l.05-.03 29.01-16.7 7.03-4.05c.1541303.35474546.0747114.7677241-.2 1.04z" fill="#02a9f4" data-original="#02A9F4"/><path id="Shape" d="m57.92 9.14-4.787 2.76-40.883 44.245-.19.5c-.0851521.2255645-.0851521.4744355 0 .7l.21.32c.2085489.2125407.4943548.3314532.7921175.3295686s.5820406-.1244052.7878825-.3395686l43.87-47.475c.2747114-.2722759.3541303-.68525454.2-1.04z" fill="#0377bc" data-original="#0377BC"/><path id="Shape" d="m57.16 8.52c-.0761021-.0120581-.1529589-.0187413-.23-.02l-44.86 1.5c-.3762145-.00841316-.7277907.1864823-.92.51l-.73-.66-10.27-9.34c.01-.02.03-.04.04-.06.19912929-.28828724.52970259-.45733041.88-.45l46.36 4 .76.29z" fill="#0377bc" data-original="#0377BC"/><g fill="#3f51b5"><path id="Shape" d="m21.78 29.81-10.84-9.7-.06.01c-.0120762-.1230166-.0495314-.2421924-.11-.35l-10.64-18.28c-.17952368-.30407793-.17178038-.68349971.02-.98l11 10c-.1917804.2965003-.1995237.6759221-.02.98l10.64 18.28c.0079537.0117335.0114964.025904.01.04z" data-original="#3F51B5"/><path id="Shape" d="m21.84 30.59-9.78 26.06c-.0851521.2255645-.0851521.4744355 0 .7l-5.72-8.63c-.32733513-.2504731-.4426906-.6912958-.28-1.07l4.78-27.06c.0577314-.149681.0716067-.3127157.04-.47l.06-.01 10.84 9.7.01.01c.0192567.0306474.0328083.0645266.04.1.0882299.2139734.0918047.4534887.01.67z" data-original="#3F51B5"/></g></g><path id="Shape" d="m.266 2.993c11.128 19.084 10.605 18.158 10.626 18.279-.04.119.276-1.625-4.8 27.121-.24031064.6976033-.05245846 1.471273.481 1.981l5.617 8.468c.3055734.6131072.8917156 1.0379819 1.5694631 1.1376506.6777476.0996688 1.3613922-.1384725 1.8305369-.6376506l43.857-47.468c.4793642-.5088422.6567401-1.231815.4673136-1.90473997-.1894266-.67292496-.7179002-1.19720304-1.3923136-1.38126003-10.549-4.903-9.755-4.563-10.006-4.588l-46.446-4c-.63580323-.00302827-1.23666416.29056162-1.625.794-.014.013-.032.019-.045.033-.02416417.0344366-.04588409.07052509-.065.108-.40371893.61985498-.43029435 1.41249589-.069 2.058zm3.734 2.456 7.025 6.387c-.0426436.4041035.0430789.8113728.245 1.164l7.514 12.9-6.062-5.425c-.122-.291.658 1.073-8.722-15.026zm19.214 24.1c-10.966-18.808-10.291-17.535-10.114-17.549l43.076-1.435zm-15.209 19.427c.036-.1-.263 1.555 4.594-25.935l9.266 8.293-9.224 24.574c-4.89-7.374-4.502-6.808-4.636-6.932zm6.017 9.014c-.066-.1 9.785-25.844 9.86-26.522l31.486-18.129c-43.268 46.796-41.246 44.676-41.346 44.651zm39.856-49.355c-43.727 1.465-41.063 1.289-41.678 1.565l-8.9-8.1 44.868 3.881z" fill="#000" data-original="#000" class="active-path"/></g></g> </svg>
