<?xml version="1.0" encoding="UTF-8"?>
<svg xmlns="http://www.w3.org/2000/svg" xmlns:xlink="http://www.w3.org/1999/xlink" width="300pt" height="300pt" viewBox="0 0 300 300" version="1.1">
<g id="surface1">
<path style=" stroke:none;fill-rule:nonzero;fill:rgba(33.332825%,23.529053%,31.37207%,0%);fill-opacity:1;" d="M 300 150 C 300 232.84375 232.84375 300 150 300 C 67.15625 300 0 232.84375 0 150 C 0 67.15625 67.15625 0 150 0 C 232.84375 0 300 67.15625 300 150 "/>
<path style=" stroke:none;fill-rule:nonzero;fill:rgb(100%,100%,100%);fill-opacity:1;" d="M 151.097656 283.398438 C 138.046875 283.398438 127.464844 272.816406 127.464844 259.765625 C 127.464844 246.710938 138.046875 236.132813 151.097656 236.132813 C 164.152344 236.132813 174.734375 246.710938 174.734375 259.765625 C 174.734375 272.816406 164.152344 283.398438 151.097656 283.398438 M 151.097656 267 C 147.101563 267 143.863281 263.761719 143.863281 259.765625 C 143.863281 255.769531 147.101563 252.53125 151.097656 252.53125 C 155.09375 252.53125 158.332031 255.769531 158.332031 259.765625 C 158.332031 263.761719 155.09375 267 151.097656 267 M 151.097656 232.363281 C 135.964844 232.363281 123.699219 244.632813 123.699219 259.765625 C 123.699219 274.898438 135.964844 287.167969 151.097656 287.167969 C 166.230469 287.167969 178.5 274.898438 178.5 259.765625 C 178.5 244.632813 166.230469 232.363281 151.097656 232.363281 "/>
<path style=" stroke:none;fill-rule:nonzero;fill:rgb(100%,100%,100%);fill-opacity:1;" d="M 145.636719 64.507813 C 132.582031 64.507813 122 53.925781 122 40.871094 C 122 27.820313 132.582031 17.238281 145.636719 17.238281 C 158.6875 17.238281 169.269531 27.820313 169.269531 40.871094 C 169.269531 53.925781 158.6875 64.507813 145.636719 64.507813 M 145.636719 48.109375 C 141.640625 48.109375 138.402344 44.867188 138.402344 40.871094 C 138.402344 36.875 141.640625 33.636719 145.636719 33.636719 C 149.632813 33.636719 152.871094 36.875 152.871094 40.871094 C 152.871094 44.867188 149.632813 48.109375 145.636719 48.109375 M 145.636719 13.46875 C 130.503906 13.46875 118.234375 25.738281 118.234375 40.871094 C 118.234375 56.007813 130.503906 68.273438 145.636719 68.273438 C 160.769531 68.273438 173.039063 56.007813 173.039063 40.871094 C 173.039063 25.738281 160.769531 13.46875 145.636719 13.46875 "/>
<path style=" stroke:none;fill-rule:nonzero;fill:rgb(100%,100%,100%);fill-opacity:1;" d="M 168 151.714844 C 168 163.035156 158.820313 172.214844 147.5 172.214844 C 136.179688 172.214844 127 163.035156 127 151.714844 C 127 140.394531 136.179688 131.214844 147.5 131.214844 C 158.820313 131.214844 168 140.394531 168 151.714844 "/>
<path style=" stroke:none;fill-rule:nonzero;fill:rgb(100%,100%,100%);fill-opacity:1;" d="M 173.761719 193.058594 C 173.761719 193.058594 157.03125 202.796875 115.960938 203.171875 C 74.667969 203.546875 50.816406 194.617188 64.15625 135.09375 C 75 86.714844 114.199219 50.53125 144.75 39.003906 L 146.226563 42.179688 C 146.226563 42.179688 73 92.464844 78.75 161.886719 C 82.304688 204.742188 173.761719 193.058594 173.761719 193.058594 "/>
<path style=" stroke:none;fill-rule:nonzero;fill:rgb(100%,100%,100%);fill-opacity:1;" d="M 112.5 109.964844 C 112.5 109.964844 129.832031 95.964844 169.269531 95.132813 C 210.992188 94.25 234.628906 98.023438 227.734375 158.632813 C 222.160156 207.632813 177.726563 253.296875 155.332031 261.796875 L 153.425781 258.089844 C 153.425781 258.089844 222.5 203.546875 209.75 133.214844 C 202.078125 90.902344 112.5 109.964844 112.5 109.964844 "/>
</g>
</svg>
