<?xml version="1.0"?>
<svg xmlns="http://www.w3.org/2000/svg" height="32px" viewBox="0 0 60 60" width="32px" class=""><g transform="matrix(-1, -0, 0, 1, 60, 0)"><g id="078---Up-Right-Arrow" fill="none"><g id="Icons" transform="translate(1 1)"><path id="Shape" d="m57.98 1.33-8.64 43.69c-.0119992.0611998-.0287157.1213794-.05.18-.1839271.384583-.583748.6181588-1.0090861.5895091s-.7902234-.3137342-.9209139-.7195091l-1.08-2.69-.59-1.49-4.56-11.38c-.1898684-.4802172-.5593153-.8675983-1.03-1.08-.1631332-.0709246-.3344448-.1213104-.51-.15-.5721741-.0974731-1.1581237.0636631-1.6.44l-23.49 19.71c-.3831057.3202091-.8710066.4875912-1.37.47-.5632078-.024911-1.0897453-.2863641-1.45-.72l-9-10.72c-.31996666-.3793243-.48748441-.8640565-.47-1.36v-.01c.01877477-.5625385.27715367-1.0902137.71-1.45l18.53-15.54 4.97-4.17c.4907596-.4121108.754315-1.0344357.7087974-1.6736605-.0455175-.6392248-.3945949-1.2179257-.9387974-1.5563395l-14.25-8.84c-.3408931-.19465735-.5509286-.55744589-.55-.95v-.01c-.0070032-.25679826.0898565-.50556831.2686626-.69002092.1788061-.18445262.4244455-.28899743.6813374-.28997908l44.53-.92c.3354217-.00259181.6543786.14515652.8693071.40268353.2149286.25752701.303241.59776803.2406929.92731647z" fill="#ef314c" data-original="#EF314C" class="" style="fill:#E4C85E" data-old_color="#ef314c"/><path id="Shape" d="m56.87 0-2.655.055c.5404277.17078153.8686293.71778429.765 1.275l-8.31 42.021.69 1.719c.1306905.4057749.4955758.6908594.9209139.7195091s.825159-.2049261 1.0090861-.5895091c.0212843-.0586206.0380008-.1188002.05-.18l8.64-43.69c.0625481-.32954844-.0257643-.66978946-.2406929-.92731647-.2149285-.25752701-.5338854-.40527534-.8693071-.40268353z" fill="#bb193b" data-original="#BB193B" class="active-path" style="fill:#E4C85E" data-old_color="#bb193b"/><path id="Shape" d="m9.45 10.69.02-.07 1.92-8.71c-.0009286.39255411.2091069.75534265.55.95l14.25 8.84c.5442025.3384138.8932799.9171147.9387974 1.5563395.0455176.6392248-.2180378 1.2615497-.7087974 1.6736605l-4.97 4.17-11.51-7.14c-.44786965-.2500852-.65383131-.7839042-.49-1.27z" fill="#ef314c" data-original="#EF314C" class="" style="fill:#E4C85E" data-old_color="#ef314c"/><path id="Shape" d="m49.3 45.2-1.96 8.92c-.1140768.4447476-.5085092.7604629-.9674433.77437-.4589342.0139071-.8717596-.2773458-1.0125567-.71437l-1.68-4.19-4.55-11.38c-.0365321-.0980658-.0834667-.1919349-.14-.28-.0273925-.056824-.0609257-.1104772-.1-.16-.138505-.1869641-.3075407-.3492384-.5-.48-.0756207-.0509713-.155995-.0945074-.24-.13-.0152549-.012184-.0320706-.0222734-.05-.03-.6999326-.321547-1.5227692-.2084557-2.11.29l-23.49 19.71c-.3945231.3268398-.8986363.4913022-1.41.46-.5475482-.0245802-1.0594075-.2786947-1.41-.7l-9-10.73c-.45254924-.5424138-.58904277-1.2817538-.36-1.95h-.01l1.9-8.51c-.01748441.4959435.15003334.9806757.47 1.36l9 10.72c.3602547.4336359.8867922.695089 1.45.72.4989934.0175912.9868943-.1497909 1.37-.47l23.49-19.71c.4418763-.3763369 1.0278259-.5374731 1.6-.44.1755552.0286896.3468668.0790754.51.15.4706847.2124017.8401316.5997828 1.03 1.08l4.56 11.38.59 1.49 1.08 2.69c.1306905.4057749.4955758.6908594.9209139.7195091s.825159-.2049261 1.0090861-.5895091z" fill="#ef314c" data-original="#EF314C" class="" style="fill:#E4C85E" data-old_color="#ef314c"/><path id="Shape" d="m49.3 45.2-1.96 8.92c-.1140768.4447476-.5085092.7604629-.9674433.77437-.4589342.0139071-.8717596-.2773458-1.0125567-.71437l-1.68-4.19-4.55-11.38c-.0365321-.0980658-.0834667-.1919349-.14-.28-.0273925-.056824-.0609257-.1104772-.1-.16-.138505-.1869641-.3075407-.3492384-.5-.48-.0730992-.055013-.1539873-.0988274-.24-.13-.0152549-.012184-.0320706-.0222734-.05-.03-.1714661-.0787662-.3533015-.1326434-.54-.16l2.03-9.09c.1755552.0286896.3468668.0790754.51.15.4706847.2124017.8401316.5997828 1.03 1.08l4.56 11.38.59 1.49 1.08 2.69c.1306905.4057749.4955758.6908594.9209139.7195091s.825159-.2049261 1.0090861-.5895091z" fill="#4527a0" data-original="#4527A0" class="" style="fill:#FFFFFF" data-old_color="#4527a0"/><g fill="#673ab7"><path id="Shape" d="m13.13 48.9-2.04 9.09c-.5475482-.0245802-1.0594075-.2786947-1.41-.7l-9-10.73c-.45254924-.5424138-.58904277-1.2817538-.36-1.95h-.01l1.9-8.51c-.01748441.4959435.15003334.9806757.47 1.36l9 10.72c.3602547.4336359.8867922.695089 1.45.72z" data-original="#673AB7" class="" style="fill:#FFFFFF" data-old_color="#673AB7"/><path id="Shape" d="m26.42 14.93-4.97 4.17-11.51-7.14c-.44786965-.2500852-.65383131-.7839042-.49-1.27l.02-.07 1.92-8.71c-.0009286.39255411.2091069.75534265.55.95l14.25 8.84c.5442025.3384138.8932799.9171147.9387974 1.5563395.0455176.6392248-.2180378 1.2615497-.7087974 1.6736605z" data-original="#673AB7" class="" style="fill:#FFFFFF" data-old_color="#673AB7"/><path id="Shape" d="m39.59 28.28-2.03 9.09c-.5637564-.0836784-1.1361674.0803884-1.57.45l-23.49 19.71c-.3945231.3268398-.8986363.4913022-1.41.46l2.04-9.09c.4989934.0175912.9868943-.1497909 1.37-.47l23.49-19.71c.4418763-.3763369 1.0278259-.5374731 1.6-.44z" data-original="#673AB7" class="" style="fill:#FFFFFF" data-old_color="#673AB7"/></g></g><g id="Layer_10" fill="#000"><path id="Shape" d="m57.845 0-44.545.919c-.8779444.01685691-1.6347219.62219681-1.844 1.475-.23.89.751-3.306-1.975 9.033-.28108608.914165.10464741 1.9014936.931 2.383l10.336 6.411-17.466 14.656c-.61130612.5124161-.99226617 1.2480506-1.058 2.043l-1.87 8.385c-.32103929.9987041-.11026145 2.0921849.559 2.9l8.987 10.718c1.0704937 1.2671321 2.9626294 1.433665 4.238.373l23.5-19.713c.2449719-.2059496.5742566-.2810606.8843057-.2017135.3100492.0793472.5627713.3034044.6786943.6017135l6.227 15.56c.2991222.849167 1.1220436 1.3996708 2.021093 1.352036.8990493-.0476348 1.6591913-.6820149 1.866907-1.558036 2.6-11.838.295-.461 10.638-52.8.1296664-.6287012-.0337836-1.28224446-.4441458-1.77588547-.4103622-.493641-1.0230449-.77373861-1.6648542-.76111453zm-46.436 11.966c.037-.112-.044.21 1.532-6.927l13.72 8.506c.2730163.1689103.4483349.4586302.4713068.7788503s-.1091966.6319984-.3553068.8381497l-4.416 3.706c-11.761-7.297-10.995-6.761-10.952-6.902zm-8.964 34.951c-.24094491-.3091293-.30311612-.7215821-.164-1.088l1.319-5.906c8.972 10.691 8.484 10.287 9.345 10.687l-1.563 6.962zm11.068 10.3 1.441-6.417c.969-.249-.874 1.128 24.265-19.965l-1.469 6.576c-.5153977.0871105-.9984804.3093285-1.4.644zm33.887-2.325c-.1.031.308.953-6.336-15.649-.2561827-.6411881-.7293723-1.1720665-1.337-1.5l1.515-6.785 6.188 15.471c.2532137.6639757.8232221 1.1562044 1.517 1.31zm1.97-9.1c-.1-.022.138.452-6.3-15.657-.3522296-.8983709-1.1189499-1.5696241-2.056-1.8-.058-.015-.115-.012-.173-.023l-.025-.011c-.025-.006-.049 0-.073 0-.8522146-.1449241-1.7250582.0920271-2.387.648l-23.503 19.716c-.2032009.1708732-.4660114.2539267-.7305032.230854s-.5089519-.1503775-.6794968-.353854l-9-10.725c-.17067734-.2030188-.25371021-.4655264-.23083048-.7297685s.14979765-.5085709.35283048-.6792315l23.5-19.715c.7368687-.6182627 1.1325917-1.5523654 1.0641024-2.5118098-.0684893-.9594443-.5928843-1.827865-1.4101024-2.3351902l-14.265-8.846c-.221-.134-3.483-.017 44.432-1 .168.2.831-3.519-8.52 43.792z" data-original="#000" class="" style="fill:#000000" data-old_color="#000"/><path id="Shape" d="m21.359 25.064-14.077 11.813c-.40042157.3604844-.44326487.973398-.09688872 1.3860843.34637615.4126862.95743453.4767666 1.38188872.1449157l14.078-11.808c.4230501-.3551191.4781191-.9859499.123-1.409s-.9859499-.4781191-1.409-.123z" data-original="#000" class="" style="fill:#000000" data-old_color="#000"/><path id="Shape" d="m30.777 17.162-4.407 3.7c-.4094882.3583267-.4573183.9782994-.1076376 1.395195.3496807.4168957.9685171.4776867 1.3926376.136805l4.407-3.7c.2879757-.225148.4301564-.5894852.3708016-.9501771-.0593548-.3606918-.3107861-.660257-.6557228-.7812541s-.7284083-.0441434-1.0000788.2004312z" data-original="#000" class="" style="fill:#000000" data-old_color="#000"/></g></g></g> </svg>
