<svg xmlns="http://www.w3.org/2000/svg" height="40" viewBox="0 0 60 60" width="40">
  <g fill="none">
    <path d="M27 16h17v17a5 5 0 005 5 4.941 4.941 0 003-1l.01-.01c.37-.28.7-.61.98-.98l4.02-4.02c.37-.28.7-.61.98-.98L58 31a4.941 4.941 0 001-3V6a5.01 5.01 0 00-2-4 4.941 4.941 0 00-3-1H32a4.941 4.941 0 00-3 1l-.01.01c-.37.28-.7.61-.98.98l-4.02 4.02c-.37.28-.7.61-.98.98L23 8a4.941 4.941 0 00-1 3 5 5 0 005 5z" fill="#955ba5" data-original="#955BA5"/>
    <path d="M6 37h17v17a5 5 0 005 5 4.941 4.941 0 003-1l.01-.01c.37-.28.7-.61.98-.98l4.02-4.02c.37-.28.7-.61.98-.98L37 52a4.941 4.941 0 001-3V27a5.01 5.01 0 00-2-4 4.941 4.941 0 00-3-1H11a4.941 4.941 0 00-3 1l-.01.01c-.37.28-.7.61-.98.98l-4.02 4.02c-.37.28-.7.61-.98.98L2 29a4.941 4.941 0 00-1 3 5 5 0 005 5z" fill="#955ba5" data-original="#955BA5"/>
    <path d="M52 7l5-5a5.01 5.01 0 012 4v22a4.941 4.941 0 01-1 3l-.01.01c-.28.37-.61.7-.98.98l-4.02 4.02A5 5 0 0054 33V11a5.01 5.01 0 00-2-4z" fill="#fff" data-original="#673AB7" data-old_color="#673ab7"/>
    <path d="M22 11a4.941 4.941 0 011-3l.01-.01A5 5 0 0127 6h22a4.941 4.941 0 013 1 5.01 5.01 0 012 4v22a5 5 0 01-1.99 3.99L52 37a5.051 5.051 0 01-3 1 5 5 0 01-5-5V16H27a5 5 0 01-5-5z" fill="#4c3648" data-original="#6A1B9A" data-old_color="#6a1b9a"/>
    <path d="M25 11a4.941 4.941 0 011-3l.01-.01A5 5 0 0130 6h19a4.941 4.941 0 013 1 5.01 5.01 0 012 4v22a5 5 0 01-1.99 3.99L52 37a4.9 4.9 0 01-1.51.77A5 5 0 0147 33V16H30a5 5 0 01-5-5z" fill="#775771" data-original="#9D27B0" class="active-path" data-old_color="#9d27b0"/>
    <path d="M23.99 7.01l4.02-4.02c.28-.37.61-.7.98-.98L29 2a4.941 4.941 0 013-1h22a4.941 4.941 0 013 1l-5 5a4.941 4.941 0 00-3-1H27a5 5 0 00-3.01 1.01z" fill="#fff" data-original="#673AB7" data-old_color="#673ab7"/>
    <path d="M27 6h1l3.01-3.01c.28-.37.61-.7.98-.98L32 2a4.941 4.941 0 013-1h-3a4.941 4.941 0 00-3 1l-.01.01c-.37.28-.7.61-.98.98l-4.02 4.02A5 5 0 0127 6z" fill="#c4c4c4" data-original="#4527A0" data-old_color="#4527a0"/>
    <path d="M1 32a4.941 4.941 0 011-3l.01-.01A5 5 0 016 27h22a4.941 4.941 0 013 1 5.01 5.01 0 012 4v22a5 5 0 01-1.99 3.99L31 58a5.051 5.051 0 01-3 1 5 5 0 01-5-5V37H6a5 5 0 01-5-5z" fill="#4c3648" data-original="#6A1B9A" data-old_color="#6a1b9a"/>
    <path d="M4 32a4.941 4.941 0 011-3l.01-.01A5 5 0 019 27h19a4.941 4.941 0 013 1 5.01 5.01 0 012 4v22a5 5 0 01-1.99 3.99L31 58a4.9 4.9 0 01-1.51.77A5 5 0 0126 54V37H9a5 5 0 01-5-5z" fill="#775771" data-original="#9D27B0" class="active-path" data-old_color="#9d27b0"/>
    <path d="M31 28l5-5a5.01 5.01 0 012 4v22a4.941 4.941 0 01-1 3l-.01.01c-.28.37-.61.7-.98.98l-4.02 4.02A5 5 0 0033 54V32a5.01 5.01 0 00-2-4z" fill="#fff" data-original="#673AB7" data-old_color="#673ab7"/>
    <path d="M2.99 28.01l4.02-4.02c.28-.37.61-.7.98-.98L8 23a4.941 4.941 0 013-1h22a4.941 4.941 0 013 1l-5 5a4.941 4.941 0 00-3-1H6a5 5 0 00-3.01 1.01z" fill="#fff" data-original="#673AB7" data-old_color="#673ab7"/>
    <path d="M6 27h1l3.01-3.01c.28-.37.61-.7.98-.98L11 23a4.941 4.941 0 013-1h-3a4.941 4.941 0 00-3 1l-.01.01c-.37.28-.7.61-.98.98l-4.02 4.02A5 5 0 016 27z" fill="#c4c4c4" data-original="#4527A0" data-old_color="#4527a0"/>
    <g fill="#000">
      <path d="M27 17h16v16a6 6 0 0010.713 3.7c5.8-5.8 4.612-4.516 5.043-5.047A5.892 5.892 0 0060 28V6a6.007 6.007 0 00-6-6H32a5.9 5.9 0 00-3.649 1.239c-.53.427.262-.267-5.052 5.048A6 6 0 0027 17zm22 20a4 4 0 01-4-4V16a1 1 0 00-1-1H27a4 4 0 110-8h22a4 4 0 014 4v22a4 4 0 01-4 4zm9-9a3.909 3.909 0 01-.807 2.406 4.981 4.981 0 01-.89.877l-1.3 1.3V11c0-1.49-.558-2.924-1.562-4.024l3.579-3.582c.627.724.974 1.648.98 2.606zM28.717 3.7c.254-.332.549-.631.877-.89A3.916 3.916 0 0132 2c23.95 0 22.4-.1 23.348.238L51.86 5.726A5.966 5.966 0 0049 5H27.414z" data-original="#000" data-old_color="#000"/>
      <path d="M6 38h16v16a6 6 0 0010.713 3.7c5.8-5.8 4.612-4.516 5.043-5.047A5.892 5.892 0 0039 49V27a6.007 6.007 0 00-6-6H11a5.9 5.9 0 00-3.649 1.239c-.53.427.262-.267-5.052 5.048A6 6 0 006 38zm22 20a4 4 0 01-4-4V37a1 1 0 00-1-1H6a4 4 0 110-8h22a4 4 0 014 4v22a4 4 0 01-4 4zm9-9a3.909 3.909 0 01-.807 2.406 4.981 4.981 0 01-.89.877l-1.3 1.3V32c0-1.49-.558-2.924-1.562-4.024l3.579-3.582c.627.724.974 1.648.98 2.606zM7.717 24.7c.254-.332.549-.631.877-.89A3.916 3.916 0 0111 23c23.95 0 22.4-.1 23.348.238l-3.488 3.488A5.966 5.966 0 0028 26H6.414z" data-original="#000" data-old_color="#000"/>
    </g>
  </g>
</svg>
