<svg xmlns="http://www.w3.org/2000/svg" viewBox="0 0 469.343 469.343" width="40px" height="40px">
  <path d="M380.885 280.457L103.552 3.124A10.635 10.635 0 0091.925.82a10.667 10.667 0 00-6.592 9.856v384c0 4.053 2.283 7.723 5.909 9.536 3.605 1.813 7.936 1.451 11.157-1.003l75.093-56.32 58.283 116.565a10.673 10.673 0 009.557 5.888c1.621 0 3.243-.363 4.757-1.131l85.333-42.667c5.269-2.645 7.424-9.045 4.779-14.315l-56.277-112.555h89.408c4.309 0 8.213-2.603 9.856-6.592a10.638 10.638 0 00-2.303-11.625zm-114.218-3.114c-3.691 0-7.125 1.92-9.067 5.056a10.625 10.625 0 00-.469 10.368l59.221 118.464-66.24 33.131-59.221-118.464a10.667 10.667 0 00-7.104-5.611 10.553 10.553 0 00-2.453-.277c-2.283 0-4.523.747-6.4 2.133l-68.267 51.2V36.425l240.917 240.917h-80.917z" data-original="#000000" class="active-path" data-old_color="#000000" fill="#FFF"/>
</svg>
