<svg xmlns="http://www.w3.org/2000/svg" xmlns:xlink="http://www.w3.org/1999/xlink" viewBox="0 0 64 64" width="512" height="512">
  <defs>
    <linearGradient id="a" x1="32" y1=".937" x2="32" y2="64.861" gradientUnits="userSpaceOnUse">
      <stop offset="0" stop-color="#ffffff"/>
      <stop offset=".129" stop-color="#ffffff"/>
      <stop offset=".343" stop-color="#ffffff"/>
      <stop offset=".616" stop-color="#ffffff"/>
      <stop offset=".934" stop-color="#ffffff"/>
      <stop offset="1" stop-color="#ffffff"/>
    </linearGradient>
    <linearGradient id="b" x1="14" y1=".937" x2="14" y2="64.861" xlink:href="#a"/>
    <linearGradient id="c" x1="50" y1=".937" x2="50" y2="64.861" xlink:href="#a"/>
    <linearGradient id="d" x1="20" y1=".937" x2="20" y2="64.861" xlink:href="#a"/>
    <linearGradient id="e" x1="24" y1=".937" x2="24" y2="64.861" xlink:href="#a"/>
    <linearGradient id="f" x1="28" y1=".937" x2="28" y2="64.861" xlink:href="#a"/>
    <linearGradient id="g" x1="36" y1=".937" x2="36" y2="64.861" xlink:href="#a"/>
    <linearGradient id="h" x1="40" y1=".937" x2="40" y2="64.861" xlink:href="#a"/>
    <linearGradient id="i" x1="44" y1=".937" x2="44" y2="64.861" xlink:href="#a"/>
    <linearGradient id="j" x1="3" y1=".937" x2="3" y2="64.861" xlink:href="#a"/>
    <linearGradient id="k" x1="57" y1=".937" x2="57" y2="64.861" xlink:href="#a"/>
    <linearGradient id="l" x1="6" y1=".937" x2="6" y2="64.861" xlink:href="#a"/>
  </defs>
  <g data-name="001GradL">
    <path fill="url(#a)" d="M31 43h2v2h-2z"/>
    <path d="M54 6H10a4 4 0 00-4 4v35a4 4 0 004 4h14.612l-2.333 7H17a3 3 0 00-3 3 2.966 2.966 0 00.184 1H9v2h38a3 3 0 000-6h-5.279l-2.333-7H54a4 4 0 004-4V10a4 4 0 00-4-4zM10 8h44a2 2 0 012 2v29H44.3l3.56-19.088a1 1 0 00-.8-1.167l-5.9-1.1a1 1 0 00-1.167.8L36.159 39h-1.085l.71-9.937a3.807 3.807 0 00-1.008-2.854c-.06-.065-.135-.114-.2-.175A3.972 3.972 0 0036 23c0-3.5-3.3-5.738-3.445-5.832a1 1 0 00-1.11 0C31.305 17.262 28 19.505 28 23a3.972 3.972 0 001.424 3.034c-.065.061-.14.11-.2.175a3.807 3.807 0 00-1.008 2.854l.71 9.937h-1.3l-2.455-15.562a1 1 0 00-.171-.425l-3.9-5.459a1 1 0 00-1.767.279l-2.027 6.4a1 1 0 00-.035.458L19.529 39H8V10a2 2 0 012-2zm28.842 27.523l1.966.368.367-1.967-1.966-.367.366-1.966 1.967.367.366-1.967-1.966-.366.367-1.966 1.966.366.367-1.966-1.966-.367.366-1.965 1.967.367.366-1.967-1.966-.367.367-1.966 3.932.734L42.263 39h-4.07zm-8.631-6.6a1.774 1.774 0 01.476-1.35 1.836 1.836 0 012.625 0 1.771 1.771 0 01.477 1.35L33.64 31h-3.28zM30 23a5.354 5.354 0 012-3.724A5.354 5.354 0 0134 23a2 2 0 01-4 0zm.931 16l-.431-6h3l-.428 6zm-9.377 0L19.4 25.361l3.952-.624L25.6 39zM19.7 23.29l.934-2.946 1.8 2.515zM48 59a1 1 0 01-1 1H17a1 1 0 010-2h30a1 1 0 011 1zm-8.388-3H24.388l2.333-7h10.558zM54 47H10a2 2 0 01-2-2v-4h48v4a2 2 0 01-2 2z" fill="url(#a)"/>
    <path fill="url(#b)" d="M13 19h2v2h-2zM13 23h2v2h-2zM13 27h2v2h-2zM13 31h2v2h-2zM13 35h2v2h-2z"/>
    <path fill="url(#c)" d="M49 19h2v2h-2zM49 23h2v2h-2zM49 27h2v2h-2zM49 31h2v2h-2zM49 35h2v2h-2z"/>
    <path d="M12 17h4a1 1 0 001-1v-4a1 1 0 00-1-1h-4a1 1 0 00-1 1v4a1 1 0 001 1zm1-4h2v2h-2z" fill="url(#b)"/>
    <path d="M48 17h4a1 1 0 001-1v-4a1 1 0 00-1-1h-4a1 1 0 00-1 1v4a1 1 0 001 1zm1-4h2v2h-2z" fill="url(#c)"/>
    <path fill="url(#d)" d="M19 13h2v2h-2z"/>
    <path fill="url(#e)" d="M23 13h2v2h-2z"/>
    <path fill="url(#f)" d="M27 13h2v2h-2z"/>
    <path fill="url(#a)" d="M31 13h2v2h-2z"/>
    <path fill="url(#g)" d="M35 13h2v2h-2z"/>
    <path fill="url(#h)" d="M39 13h2v2h-2z"/>
    <path fill="url(#i)" d="M43 13h2v2h-2z"/>
    <path fill="url(#j)" d="M2 22h2v23H2z"/>
    <path d="M55 2h-3v2h3a5.006 5.006 0 015 5v24h2V9a7.008 7.008 0 00-7-7z" fill="url(#k)"/>
    <path fill="url(#j)" d="M2 18h2v2H2z"/>
    <path fill="url(#l)" d="M5 60h2v2H5z"/>
  </g>
</svg>
