<svg xmlns="http://www.w3.org/2000/svg" xmlns:xlink="http://www.w3.org/1999/xlink" viewBox="0 0 64 64" width="512" height="512">
  <defs>
    <linearGradient id="a" x1="34" y1="2.808" x2="34" y2="64.222" gradientUnits="userSpaceOnUse">
      <stop offset="0" stop-color="#ffffff"/>
      <stop offset=".129" stop-color="#ffffff"/>
      <stop offset=".343" stop-color="#ffffff"/>
      <stop offset=".616" stop-color="#ffffff"/>
      <stop offset=".934" stop-color="#ffffff"/>
      <stop offset="1" stop-color="#ffffff"/>
    </linearGradient>
    <linearGradient id="b" x1="30" y1="2.808" x2="30" y2="64.222" xlink:href="#a"/>
    <linearGradient id="c" x1="32" y1="2.808" x2="32" y2="64.222" xlink:href="#a"/>
    <linearGradient id="d" x1="12" y1="2.808" x2="12" y2="64.222" xlink:href="#a"/>
    <linearGradient id="e" x1="16" y1="2.808" x2="16" y2="64.222" xlink:href="#a"/>
    <linearGradient id="f" x1="20" y1="2.808" x2="20" y2="64.222" xlink:href="#a"/>
    <linearGradient id="g" x1="24" y1="2.808" x2="24" y2="64.222" xlink:href="#a"/>
    <linearGradient id="h" x1="28" y1="2.808" x2="28" y2="64.222" xlink:href="#a"/>
    <linearGradient id="i" x1="43" y1="2.808" x2="43" y2="64.222" xlink:href="#a"/>
    <linearGradient id="j" x1="50" y1="2.808" x2="50" y2="64.222" xlink:href="#a"/>
    <linearGradient id="k" x1="48" y1="2.808" x2="48" y2="64.222" xlink:href="#a"/>
    <linearGradient id="l" x1="32.5" y1="2.808" x2="32.5" y2="64.222" xlink:href="#a"/>
    <linearGradient id="m" x1="22" y1="2.808" x2="22" y2="64.222" xlink:href="#a"/>
    <linearGradient id="n" x1="40" y1="2.808" x2="40" y2="64.222" xlink:href="#a"/>
    <linearGradient id="o" x1="26" y1="2.808" x2="26" y2="64.222" xlink:href="#a"/>
    <linearGradient id="p" x1="36" y1="2.808" x2="36" y2="64.222" xlink:href="#a"/>
    <linearGradient id="q" x1="44.5" y1="2.808" x2="44.5" y2="64.222" xlink:href="#a"/>
    <linearGradient id="r" x1="52" y1="2.808" x2="52" y2="64.222" xlink:href="#a"/>
  </defs>
  <g data-name="001GradL">
    <path fill="url(#a)" d="M33 10h2v2h-2z"/>
    <path fill="url(#b)" d="M29 10h2v2h-2z"/>
    <path fill="url(#c)" d="M31 52h2v2h-2z"/>
    <path fill="url(#d)" d="M11 22h2v2h-2z"/>
    <path fill="url(#e)" d="M15 22h2v2h-2z"/>
    <path fill="url(#f)" d="M19 22h2v2h-2z"/>
    <path fill="url(#g)" d="M23 22h2v2h-2z"/>
    <path fill="url(#h)" d="M27 22h2v2h-2z"/>
    <path fill="url(#i)" d="M42 40h2v2h-2z"/>
    <path fill="url(#j)" d="M46 40h8v2h-8z"/>
    <path fill="url(#k)" d="M42 44h12v2H42zM42 48h12v2H42z"/>
    <path d="M15 7v11H8a1 1 0 00-1 1v8a1 1 0 001 1h7v29a1 1 0 001 1h32a1 1 0 001-1v-3h8a1 1 0 001-1V37a1 1 0 00-1-1h-8V7a1 1 0 00-1-1H16a1 1 0 00-1 1zM9 20h22v6H9zm38 36H17v-6h21v3a1 1 0 001 1h8zm9-4H40V38h16zM39 36a1 1 0 00-1 1v11H17V28h15a1 1 0 001-1v-8a1 1 0 00-1-1H17v-2h30v20zm8-28v6H17V8z" fill="url(#l)"/>
    <path d="M32 31h-4a1 1 0 00-1 1v4a1 1 0 001 1h4a1 1 0 001-1v-4a1 1 0 00-1-1zm-1 4h-2v-2h2z" fill="url(#b)"/>
    <path d="M20 37h4a1 1 0 001-1v-4a1 1 0 00-1-1h-4a1 1 0 00-1 1v4a1 1 0 001 1zm1-4h2v2h-2z" fill="url(#m)"/>
    <path d="M42.793 24.855a4 4 0 10-5.586 0A5 5 0 0035 29v4a1 1 0 001 1h8a1 1 0 001-1v-4a5 5 0 00-2.207-4.145zM38 22a2 2 0 112 2 2 2 0 01-2-2zm5 10h-6v-3a3 3 0 016 0z" fill="url(#n)"/>
    <path fill="url(#f)" d="M19 39h2v2h-2z"/>
    <path fill="url(#h)" d="M23 39h10v2H23z"/>
    <path fill="url(#o)" d="M19 43h14v2H19z"/>
    <path fill="url(#p)" d="M26 60h20v2H26z"/>
    <path fill="url(#d)" d="M11 31h2v16h-2z"/>
    <path d="M53 6a4 4 0 00-4-4H36v2h13a2 2 0 012 2v16h2z" fill="url(#q)"/>
    <path fill="url(#r)" d="M51 24h2v2h-2z"/>
  </g>
</svg>
